<svg xmlns="http://www.w3.org/2000/svg" width="600" height="600" viewBox="0 0 600 600" version="1.1"><path d="" stroke="none" fill="#10acf4" fill-rule="evenodd"/><path d="M 432.951 180.362 C 423.933 182.794, 417.666 188.665, 414.444 197.698 C 410.499 208.756, 415.834 222.772, 426 228.061 C 427.375 228.776, 432.509 230.528, 437.410 231.954 C 447.431 234.871, 450.784 237.739, 449.616 242.395 C 448.268 247.766, 437.138 250.057, 429.652 246.505 C 426.003 244.774, 423 245.003, 423 247.015 C 423 248.975, 433.247 252.980, 438.290 252.990 C 443.695 253.001, 450.028 250.225, 452.434 246.791 C 454.492 243.853, 454.425 238.528, 452.285 234.905 C 450.481 231.851, 447.775 230.596, 435.230 226.992 C 423.466 223.612, 417.881 217.079, 417.787 206.584 C 417.722 199.371, 419.361 195.029, 423.766 190.737 C 428.774 185.857, 434.143 183.770, 441.584 183.813 C 448.169 183.851, 453.525 185.638, 458.554 189.473 C 460.924 191.281, 462.001 191.599, 462.858 190.742 C 463.486 190.114, 464 189.262, 464 188.848 C 464 187.169, 454.794 181.921, 449.373 180.509 C 442.543 178.730, 439.115 178.699, 432.951 180.362 M 134 183 C 134 184.934, 134.670 185, 154.250 185.010 C 173.433 185.019, 174.763 185.144, 179.500 187.377 C 188.151 191.457, 192 197.656, 192 207.508 C 192 214.154, 189.628 219.364, 184.586 223.790 C 179.846 227.952, 175.500 228.988, 162.750 228.994 C 153.859 228.999, 152 228.741, 152 227.500 C 152 226.256, 153.909 226, 163.184 226 C 172.557 226, 175.082 225.655, 178.774 223.867 C 190.271 218.302, 193.162 203.949, 184.724 194.338 C 179.535 188.428, 177.495 188, 154.532 188 C 134.667 188, 134 188.065, 134 190 C 134 191.934, 134.668 192, 154.250 192.004 C 172.692 192.007, 174.791 192.185, 177.759 193.995 C 187.350 199.842, 187.480 213.421, 178 219.314 C 175.072 221.134, 172.662 221.549, 163.250 221.853 C 153.430 222.170, 152 222.011, 152 220.608 C 152 219.229, 153.549 219, 162.852 219 C 172.493 219, 174.083 218.745, 177.102 216.717 C 181.939 213.468, 183.800 207.807, 181.686 202.772 C 178.717 195.701, 176.223 195.008, 153.750 195.004 L 134 195 134 230 C 134 264.333, 134.038 265, 136 265 C 137.960 265, 138 264.333, 138 232 C 138 203.333, 138.197 199, 139.500 199 C 140.803 199, 141 203.333, 141 232 C 141 264.333, 141.040 265, 143 265 C 144.960 265, 145 264.333, 145 232 C 145 203.333, 145.197 199, 146.500 199 C 147.803 199, 148 203.333, 148 232 C 148 264.333, 148.040 265, 150 265 C 151.917 265, 152 264.333, 152 249 L 152 233 164.250 232.990 C 174.976 232.982, 177.122 232.690, 181.500 230.647 C 190.361 226.512, 197 216.384, 197 207 C 197 197.867, 190.566 187.956, 181.801 183.588 C 176.703 181.047, 176.217 181, 155.304 181 C 134.667 181, 134 181.063, 134 183 M 209 223 C 209 264.333, 209.032 265, 211 265 C 212.968 265, 213 264.333, 213 223 C 213 181.667, 212.968 181, 211 181 C 209.032 181, 209 181.667, 209 223 M 216 223 C 216 264.333, 216.032 265, 218 265 C 219.968 265, 220 264.333, 220 223 C 220 181.667, 219.968 181, 218 181 C 216.032 181, 216 181.667, 216 223 M 223 223 C 223 264.333, 223.032 265, 225 265 C 226.968 265, 227 264.333, 227 223 C 227 181.667, 226.968 181, 225 181 C 223.032 181, 223 181.667, 223 223 M 244 223 C 244 264.333, 244.032 265, 246 265 C 247.968 265, 248 264.333, 248 223 C 248 181.667, 247.968 181, 246 181 C 244.032 181, 244 181.667, 244 223 M 251 223 C 251 264.333, 251.032 265, 253 265 C 254.968 265, 255 264.333, 255 223 C 255 181.667, 254.968 181, 253 181 C 251.032 181, 251 181.667, 251 223 M 258 223 C 258 264.234, 258.036 265, 259.986 265 C 261.920 265, 261.979 264.171, 262.236 233.557 L 262.500 202.115 279.500 233.549 C 294.028 260.412, 296.827 264.985, 298.750 264.992 C 299.988 264.996, 301 264.733, 301 264.407 C 301 264.080, 293.188 249.568, 283.640 232.157 C 262.683 193.940, 261.800 192.222, 262.191 190.452 C 262.361 189.683, 271.929 206.142, 283.453 227.027 C 301.585 259.885, 304.716 265, 306.703 265 L 309 265 309 223 L 309 181 306.515 181 L 304.030 181 303.765 210.433 L 303.500 239.866 287.573 210.433 C 273.665 184.731, 271.348 181, 269.297 181 C 266.480 181, 264.283 176.354, 287.202 218.858 C 296.986 237.003, 303.982 251.079, 303.805 252.263 C 303.613 253.554, 296.123 240.800, 283.500 217.683 C 264.743 183.333, 263.329 181.056, 260.750 181.029 L 258 181 258 223 M 312 223 C 312 264.333, 312.032 265, 314 265 C 315.968 265, 316 264.333, 316 223 C 316 181.667, 315.968 181, 314 181 C 312.032 181, 312 181.667, 312 223 M 319 223 C 319 264.333, 319.032 265, 321 265 C 322.968 265, 323 264.333, 323 223 C 323 181.667, 322.968 181, 321 181 C 319.032 181, 319 181.667, 319 223 M 341 183 C 341 184.954, 341.667 185, 370 185 C 398.333 185, 399 184.954, 399 183 C 399 181.046, 398.333 181, 370 181 C 341.667 181, 341 181.046, 341 183 M 434.843 186.975 C 423.573 190.379, 417.838 200.976, 421.424 211.770 C 423.898 219.219, 427.241 221.770, 438.731 224.972 C 451.400 228.504, 452.775 229.292, 455.063 234.331 C 459.646 244.424, 455.066 252.404, 443.105 255.165 C 436.745 256.633, 429.260 255.141, 423.712 251.299 C 420.784 249.271, 419.654 248.946, 418.735 249.865 C 415.449 253.151, 426.136 259.273, 436.147 259.838 C 446.540 260.426, 454.720 256.786, 459.081 249.634 C 461.809 245.161, 461.639 236.687, 458.718 231.530 C 455.647 226.107, 451.798 223.777, 441.376 221.030 C 430.551 218.177, 429.345 217.490, 426.917 212.790 C 422.210 203.679, 426.860 193.389, 436.681 191.183 C 441.978 189.993, 448.340 191.136, 452.165 193.964 C 455.020 196.074, 458 196.135, 458 194.082 C 458 192.428, 451.726 188.258, 447.500 187.104 C 442.934 185.857, 438.687 185.813, 434.843 186.975 M 341 190 C 341 191.954, 341.667 192, 370 192 C 398.333 192, 399 191.954, 399 190 C 399 188.046, 398.333 188, 370 188 C 341.667 188, 341 188.046, 341 190 M 434.500 194.954 C 430.283 196.698, 427.667 200.748, 427.667 205.530 C 427.667 212.676, 430.085 215.063, 440.094 217.793 C 451.539 220.916, 456.360 223.279, 459.265 227.190 C 468.782 240.002, 463.298 256.370, 447.814 261.371 C 438.265 264.455, 429.342 263.136, 420.396 257.319 C 414.950 253.777, 413.508 253.369, 412.454 255.074 C 411.634 256.401, 415.517 260.679, 419.352 262.674 C 428.100 267.224, 441.738 268.359, 450.391 265.257 C 456.674 263.004, 463.238 257.206, 466.028 251.442 C 469.146 245.002, 468.997 235.890, 465.669 229.366 C 461.580 221.352, 458.455 219.143, 445.810 215.333 C 439.590 213.459, 433.938 211.181, 433.250 210.272 C 431.140 207.480, 431.759 203.128, 434.646 200.452 C 437.750 197.576, 442.953 197.206, 447.434 199.542 C 453.036 202.464, 455.121 199.264, 449.750 195.989 C 446.345 193.913, 438.331 193.369, 434.500 194.954 M 341 230 C 341 264.333, 341.038 265, 343 265 C 344.960 265, 345 264.333, 345 232 C 345 203.333, 345.197 199, 346.500 199 C 347.803 199, 348 203.333, 348 232 C 348 264.333, 348.040 265, 350 265 C 351.960 265, 352 264.333, 352 232 C 352 203.333, 352.197 199, 353.500 199 C 354.803 199, 355 203.333, 355 232 L 355 265 377.500 265 C 399.333 265, 400 264.941, 400 263 C 400 261.065, 399.333 261, 379.500 261 C 361.944 261, 359 260.785, 359 259.500 C 359 258.215, 361.944 258, 379.500 258 C 399.333 258, 400 257.935, 400 256 C 400 254.065, 399.333 254, 379.500 254 C 361.944 254, 359 253.785, 359 252.500 C 359 251.215, 361.944 251, 379.500 251 C 399.333 251, 400 250.935, 400 249 C 400 247.065, 399.333 247, 379.500 247 L 359 247 359 239 L 359 231 378 231 C 396.333 231, 397 230.930, 397 229 C 397 227.070, 396.333 227, 378 227 C 361.778 227, 359 226.781, 359 225.500 C 359 224.219, 361.778 224, 378 224 C 396.333 224, 397 223.930, 397 222 C 397 220.070, 396.333 220, 378 220 C 361.778 220, 359 219.781, 359 218.500 C 359 217.219, 361.778 217, 378 217 C 396.333 217, 397 216.930, 397 215 C 397 213.070, 396.333 213, 378 213 L 359 213 359 206 L 359 199 379 199 C 398.333 199, 399 198.933, 399 197 C 399 195.046, 398.333 195, 370 195 L 341 195 341 230 M 152 207 L 152 215.221 163.104 214.841 C 173.305 214.492, 174.362 214.271, 176.104 212.120 C 177.147 210.832, 178 208.528, 178 207 C 178 205.472, 177.147 203.168, 176.104 201.880 C 174.362 199.729, 173.305 199.508, 163.104 199.159 L 152 198.779 152 207 M 264.318 312.874 C 242.200 321.107, 229.699 344.111, 235.426 366.040 C 238.664 378.437, 248.170 389.866, 259.745 395.280 C 266.079 398.243, 267.217 398.442, 278 398.470 C 288.434 398.497, 290.033 398.250, 295.250 395.805 L 301 393.111 301 379.055 C 301 367.228, 301.238 365, 302.500 365 C 303.762 365, 304 367.222, 304 379 C 304 392.333, 304.095 393, 306 393 C 307.905 393, 308 392.333, 308 379 C 308 367.222, 308.238 365, 309.500 365 C 310.762 365, 311 367.222, 311 379 C 311 392.333, 311.095 393, 313 393 C 314.917 393, 315 392.333, 315 377 L 315 361 297.500 361 C 280.667 361, 280 361.076, 280 363 C 280 364.833, 280.667 365, 288 365 L 296 365 295.993 369.250 C 295.987 372.922, 295.545 373.798, 292.743 375.692 C 287.810 379.026, 284.043 380.171, 277.957 380.186 C 263.402 380.223, 252.973 369.711, 253.022 355.054 C 253.048 347.150, 255.196 341.998, 260.631 336.799 C 265.665 331.983, 271.083 329.800, 278 329.800 C 284.369 329.800, 289.058 331.481, 293.770 335.454 C 296.440 337.705, 297.312 337.986, 298.520 336.983 C 300.771 335.115, 300.422 334.531, 294.750 330.666 C 287.943 326.027, 278.562 324.122, 271.374 325.918 C 248.659 331.596, 240.919 359.853, 257.530 376.464 C 263.283 382.216, 269.074 384.473, 278.054 384.460 C 284.139 384.451, 286.617 383.949, 290.804 381.878 C 295.395 379.605, 296 379.507, 296 381.030 C 296 384.131, 286.616 387.500, 277.978 387.500 C 271.488 387.500, 269.535 387.047, 263.754 384.200 C 252.358 378.589, 245.875 368.102, 245.875 355.279 C 245.875 348.170, 247.217 343.206, 250.544 338 C 260.924 321.763, 283.174 317.808, 297.968 329.570 C 302.167 332.908, 302.517 333.014, 303.757 331.317 C 304.918 329.730, 304.680 329.186, 301.789 326.817 C 287.094 314.774, 265.515 315.672, 252.289 328.876 C 237.779 343.362, 237.609 366.894, 251.913 380.993 C 259.629 388.598, 265.484 391.281, 275.494 391.797 C 281.719 392.118, 284.833 391.758, 289.491 390.179 C 295.854 388.022, 296.580 388.047, 295.679 390.395 C 294.953 392.286, 289.321 393.906, 280.791 394.677 C 260.822 396.482, 242.295 381.629, 239.093 361.250 C 236.335 343.695, 245.558 326.367, 261.739 318.703 C 267.960 315.756, 269.299 315.502, 278.500 315.522 C 289.487 315.546, 292.446 316.570, 302.324 323.765 C 306.541 326.837, 307.332 327.097, 308.600 325.828 C 309.869 324.559, 309.559 323.980, 306.134 321.228 C 303.979 319.496, 299.371 316.633, 295.893 314.866 C 290.260 312.004, 288.472 311.614, 279.535 311.299 C 271.457 311.014, 268.489 311.322, 264.318 312.874 M 453.275 312.604 C 448.026 314.525, 439.766 321.837, 436.446 327.502 C 432.027 335.042, 431.036 343.026, 431.017 371.250 L 431 397 433.500 397 L 436 397 436 368.538 C 436 336.064, 436.526 333.228, 444.155 324.561 C 451.504 316.213, 460.854 313.362, 471.110 316.344 C 478.545 318.505, 484.179 323.587, 488.208 331.767 L 491.500 338.450 491.818 367.725 C 492.123 395.882, 492.209 397, 494.068 397 C 495.932 397, 496 396.007, 495.989 368.750 C 495.978 339.876, 495.544 335.811, 491.679 328.352 C 489.017 323.215, 482.348 316.529, 477.377 314.013 C 471.266 310.920, 459.723 310.246, 453.275 312.604 M 42 314.932 C 42 316.951, 42.461 317, 61.250 317.012 C 81.345 317.024, 86.805 317.801, 94.500 321.745 C 101.372 325.267, 107.399 331.406, 111.058 338.611 C 114.268 344.933, 114.500 346.036, 114.500 354.945 C 114.500 363.385, 114.160 365.235, 111.591 370.800 C 107.127 380.468, 97.886 388.005, 86.119 391.577 C 79.707 393.523, 60 393.541, 60 391.600 C 60 390.494, 62.669 390.122, 72.750 389.825 C 84.234 389.487, 86.125 389.164, 91.791 386.570 C 99.777 382.914, 107.016 375.239, 110.016 367.247 C 113.173 358.835, 112.583 347.637, 108.564 339.706 C 104.988 332.649, 98.747 326.710, 91.175 323.160 C 85.661 320.575, 84.884 320.491, 63.750 320.180 C 42.511 319.868, 42 319.907, 42 321.874 C 42 323.818, 42.721 323.898, 62.777 324.194 L 83.553 324.500 90.235 327.792 C 105.094 335.113, 111.496 350.582, 105.879 365.593 C 103.057 373.137, 98.196 378.286, 90.165 382.240 C 84.034 385.259, 82.674 385.526, 71.772 385.855 C 61.808 386.156, 60 385.980, 60 384.708 C 60 383.475, 62.192 383.136, 72.250 382.814 C 83.098 382.468, 85.079 382.122, 89.563 379.789 C 100.305 374.202, 105.617 364.872, 104.773 353.078 C 104.187 344.884, 101.110 338.839, 95.101 334.080 C 87.453 328.023, 85.437 327.594, 62.750 327.192 L 42 326.825 42 361.913 C 42 396.333, 42.038 397, 44 397 C 45.960 397, 46 396.333, 46 364 C 46 335.333, 46.197 331, 47.500 331 C 48.803 331, 49 335.333, 49 364 C 49 396.333, 49.040 397, 51 397 C 52.960 397, 53 396.333, 53 364 C 53 335.333, 53.197 331, 54.500 331 C 55.803 331, 56 335.343, 56 364.088 L 56 397.176 71.750 396.838 C 86.942 396.512, 87.730 396.391, 94 393.414 C 111.750 384.986, 122.219 366.385, 119.119 348.785 C 116.724 335.191, 107.133 322.799, 94.302 316.722 L 87.500 313.500 64.750 313.182 C 42.316 312.869, 42 312.894, 42 314.932 M 132 355 C 132 396.333, 132.032 397, 134 397 C 135.968 397, 136 396.333, 136 355 C 136 313.667, 135.968 313, 134 313 C 132.032 313, 132 313.667, 132 355 M 139 355 C 139 396.333, 139.032 397, 141 397 C 142.968 397, 143 396.333, 143 355 C 143 313.667, 142.968 313, 141 313 C 139.032 313, 139 313.667, 139 355 M 146 355 C 146 396.333, 146.032 397, 148 397 C 149.968 397, 150 396.333, 150 355 C 150 313.667, 149.968 313, 148 313 C 146.032 313, 146 313.667, 146 355 M 167 315 C 167 316.954, 167.667 317, 196 317 C 224.333 317, 225 316.954, 225 315 C 225 313.046, 224.333 313, 196 313 C 167.667 313, 167 313.046, 167 315 M 330 355 L 330 397 332.500 397 L 335 397 335 355 L 335 313 332.500 313 L 330 313 330 355 M 337 355 L 337 397 339.500 397 L 342 397 342 355 L 342 313 339.500 313 L 337 313 337 355 M 345 355 C 345 396.333, 345.032 397, 347 397 C 348.968 397, 349 396.333, 349 355 C 349 313.667, 348.968 313, 347 313 C 345.032 313, 345 313.667, 345 355 M 358 315 C 358 316.959, 358.667 317, 390.500 317 C 422.333 317, 423 316.959, 423 315 C 423 313.041, 422.333 313, 390.500 313 C 358.667 313, 358 313.041, 358 315 M 511 355 C 511 396.333, 511.032 397, 513 397 C 514.968 397, 515 396.333, 515 355 C 515 313.667, 514.968 313, 513 313 C 511.032 313, 511 313.667, 511 355 M 518 355 L 518 397 520.500 397 L 523 397 523 355 L 523 313 520.500 313 L 518 313 518 355 M 525 355 L 525 397 545 397 C 564.333 397, 565 396.933, 565 395 C 565 393.076, 564.333 393, 547.500 393 C 532.611 393, 530 392.776, 530 391.500 C 530 390.224, 532.611 390, 547.500 390 C 564.333 390, 565 389.924, 565 388 C 565 386.076, 564.333 386, 547.500 386 C 532.611 386, 530 385.776, 530 384.500 C 530 383.224, 532.611 383, 547.500 383 C 564.333 383, 565 382.924, 565 381 C 565 379.076, 564.333 379, 547.500 379 L 530 379 530 346 L 530 313 527.500 313 L 525 313 525 355 M 455 319.590 C 450.580 321.499, 444.380 327.436, 442.006 332.032 C 438.847 338.149, 438 346.635, 438 372.184 L 438 397 440.444 397 L 442.889 397 443.194 367.750 C 443.484 339.999, 443.611 338.295, 445.658 334.500 C 454.845 317.475, 474.583 318.204, 482.752 335.871 C 484.170 338.937, 484.485 343.960, 484.784 368.250 C 485.123 395.871, 485.213 397, 487.069 397 C 488.931 397, 489 396.002, 489 369.038 C 489 337.582, 488.437 334.375, 481.489 326.259 C 474.959 318.629, 463.754 315.809, 455 319.590 M 167 322 C 167 323.954, 167.667 324, 196 324 C 224.333 324, 225 323.954, 225 322 C 225 320.046, 224.333 320, 196 320 C 167.667 320, 167 320.046, 167 322 M 358 322 C 358 323.959, 358.667 324, 390.500 324 C 422.333 324, 423 323.959, 423 322 C 423 320.041, 422.333 320, 390.500 320 C 358.667 320, 358 320.041, 358 322 M 458.352 326.092 C 454.770 327.130, 449.412 332.769, 447.375 337.645 C 446.319 340.172, 446 347.446, 446 368.968 C 446 396.333, 446.048 397, 448 397 C 449.852 397, 450 396.333, 450 388 L 450 379 464 379 L 478 379 478 388 C 478 396.416, 478.134 397, 480.056 397 C 482.091 397, 482.109 396.696, 481.806 368.169 L 481.500 339.337 478.488 334.419 C 473.786 326.738, 466.509 323.729, 458.352 326.092 M 167 362 C 167 396.333, 167.038 397, 169 397 C 170.960 397, 171 396.333, 171 364 C 171 335.333, 171.197 331, 172.500 331 C 173.803 331, 174 335.333, 174 364 L 174 397 176.500 397 L 179 397 179 364 C 179 342.667, 179.354 331, 180 331 C 180.646 331, 181 342.667, 181 364 L 181 397 183.500 397 L 186 397 186 380 L 186 363 203.500 363 C 220.333 363, 221 362.924, 221 361 C 221 359.076, 220.333 359, 203.500 359 C 188.611 359, 186 358.776, 186 357.500 C 186 356.224, 188.611 356, 203.500 356 C 220.333 356, 221 355.924, 221 354 C 221 352.076, 220.333 352, 203.500 352 C 188.611 352, 186 351.776, 186 350.500 C 186 349.224, 188.611 349, 203.500 349 C 220.333 349, 221 348.924, 221 347 C 221 345.076, 220.333 345, 203.500 345 L 186 345 186 338 L 186 331 205.500 331 C 224.333 331, 225 330.932, 225 329 C 225 327.046, 224.333 327, 196 327 L 167 327 167 362 M 358 329 C 358 330.889, 358.667 331, 370 331 L 382 331 382 364 C 382 396.333, 382.040 397, 384 397 C 385.960 397, 386 396.333, 386 364 C 386 335.333, 386.197 331, 387.500 331 C 388.803 331, 389 335.333, 389 364 C 389 396.333, 389.040 397, 391 397 C 392.960 397, 393 396.333, 393 364 C 393 335.333, 393.197 331, 394.500 331 C 395.803 331, 396 335.333, 396 364 C 396 396.333, 396.040 397, 398 397 C 399.960 397, 400 396.333, 400 364 L 400 331 411.500 331 C 422.333 331, 423 330.884, 423 329 C 423 327.041, 422.333 327, 390.500 327 C 358.667 327, 358 327.041, 358 329 M 461.500 329.744 C 457.796 330.650, 453.779 334.275, 451.905 338.401 C 450.527 341.436, 450.038 344.901, 450.022 351.750 L 450 361 464.134 361 L 478.267 361 477.798 351.247 C 477.259 340.051, 475.579 335.551, 470.745 332.352 C 466.926 329.824, 464.254 329.070, 461.500 329.744 M 60 354.936 L 60 379.172 71.250 378.836 C 83.128 378.481, 88.163 376.882, 93.847 371.657 C 102.633 363.583, 102.842 348.413, 94.289 339.593 C 88.573 333.699, 83.658 331.948, 70.942 331.278 L 60 330.700 60 354.936 M 280 349 C 280 350.924, 280.667 351, 297.500 351 C 314.333 351, 315 350.924, 315 349 C 315 347.076, 314.333 347, 297.500 347 C 280.667 347, 280 347.076, 280 349 M 280 356 C 280 357.924, 280.667 358, 297.500 358 C 314.333 358, 315 357.924, 315 356 C 315 354.076, 314.333 354, 297.500 354 C 280.667 354, 280 354.076, 280 356 M 450 366.500 C 450 367.762, 452.222 368, 464 368 C 475.778 368, 478 367.762, 478 366.500 C 478 365.238, 475.778 365, 464 365 C 452.222 365, 450 365.238, 450 366.500 M 450 373.500 C 450 374.762, 452.222 375, 464 375 C 475.778 375, 478 374.762, 478 373.500 C 478 372.238, 475.778 372, 464 372 C 452.222 372, 450 372.238, 450 373.500" stroke="none" fill="#0cacf4" fill-rule="evenodd"/></svg>