<svg fill="none" height="327" viewBox="0 0 662 327" width="662" xmlns="http://www.w3.org/2000/svg"><path clip-rule="evenodd" d="m417.569.261721 162.954-.000002v81.667281h-162.954zm0 245.002279h-81.477v-163.335h81.477zm162.954 0v81.667h-162.954v-81.667zm0 0v-163.335h81.477v163.335zm-499.0461-81.668c0 45.045 36.5631 81.668 81.4771 81.668s81.477-36.623 81.477-81.668c0-45.044-36.563-81.667-81.477-81.667s-81.4771 36.623-81.4771 81.667zm-81.4769 0c0-90.2165 72.9473-163.334275 162.954-163.334276 90.006-.000001 162.954 73.117676 162.954 163.334276 0 90.217-72.948 163.335-162.954 163.335-90.0067 0-162.954-73.118-162.954-163.335z" fill="#ff4dff" fill-opacity=".14" fill-rule="evenodd"/></svg>