<svg fill="none" height="423" viewBox="0 0 857 423" width="857" xmlns="http://www.w3.org/2000/svg"><path clip-rule="evenodd" d="m316.084 422.43v-105.607h105.361v-211.215h-105.361v-105.60780537l-210.723-.00001842v105.60782379h-105.3609723l-.00001847 211.215h105.36099077v105.607zm-210.723-105.607v-211.215h210.723v211.215zm539.977-211.215c58.081 0 105.361 47.358 105.361 105.607s-47.28 105.608-105.361 105.608c-58.08 0-105.361-47.359-105.361-105.608s47.281-105.607 105.361-105.607zm0 316.822c116.391 0 210.723-94.552 210.723-211.215 0-116.6631-94.332-211.21476641-210.723-211.21477659-116.391-.00001017-210.723 94.55167659-210.723 211.21477659 0 116.663 94.332 211.215 210.723 211.215z" fill="#9830ff" fill-opacity=".12" fill-rule="evenodd"/></svg>