<svg fill="none" height="756" viewBox="0 0 373 756" width="373" xmlns="http://www.w3.org/2000/svg"><path clip-rule="evenodd" d="m186.5 93.0462c-51.433 0-93.25 41.7548-93.25 93.0458 0 51.292 41.817 93.047 93.25 93.047s93.25-41.755 93.25-93.047c0-51.291-41.817-93.0458-93.25-93.0458zm0-93.0462c103.012.00000796 186.5 83.3054 186.5 186.092 0 102.787-83.488 186.093-186.5 186.093-103.0121 0-186.49998256-83.306-186.49997357-186.093.00000899-102.7866 83.48787357-186.09201005 186.49997357-186.092zm-93.25 476.862v-93.047h186.5v93.047zm0 186.092v-186.092h-93.24998373l-.00001627 186.092zm186.5 0v93.046h-186.5v-93.046zm0 0h93.25v-186.092h-93.25z" fill="#0054ff" fill-rule="evenodd" opacity=".1"/></svg>